<svg width="100" height="100" viewBox="0 0 100 100" fill="none" xmlns="http://www.w3.org/2000/svg">
<path d="M31.25 65.625C31.25 64.7962 31.5792 64.0013 32.1653 63.4153C32.7513 62.8292 33.5462 62.5 34.375 62.5H46.875C47.7038 62.5 48.4987 62.8292 49.0847 63.4153C49.6708 64.0013 50 64.7962 50 65.625C50 66.4538 49.6708 67.2487 49.0847 67.8347C48.4987 68.4208 47.7038 68.75 46.875 68.75H34.375C33.5462 68.75 32.7513 68.4208 32.1653 67.8347C31.5792 67.2487 31.25 66.4538 31.25 65.625ZM31.25 53.125C31.25 52.2962 31.5792 51.5013 32.1653 50.9153C32.7513 50.3292 33.5462 50 34.375 50H65.625C66.4538 50 67.2487 50.3292 67.8347 50.9153C68.4208 51.5013 68.75 52.2962 68.75 53.125C68.75 53.9538 68.4208 54.7487 67.8347 55.3347C67.2487 55.9208 66.4538 56.25 65.625 56.25H34.375C33.5462 56.25 32.7513 55.9208 32.1653 55.3347C31.5792 54.7487 31.25 53.9538 31.25 53.125ZM31.25 40.625C31.25 39.7962 31.5792 39.0013 32.1653 38.4153C32.7513 37.8292 33.5462 37.5 34.375 37.5H65.625C66.4538 37.5 67.2487 37.8292 67.8347 38.4153C68.4208 39.0013 68.75 39.7962 68.75 40.625C68.75 41.4538 68.4208 42.2487 67.8347 42.8347C67.2487 43.4208 66.4538 43.75 65.625 43.75H34.375C33.5462 43.75 32.7513 43.4208 32.1653 42.8347C31.5792 42.2487 31.25 41.4538 31.25 40.625ZM31.25 28.125C31.25 27.2962 31.5792 26.5013 32.1653 25.9153C32.7513 25.3292 33.5462 25 34.375 25H65.625C66.4538 25 67.2487 25.3292 67.8347 25.9153C68.4208 26.5013 68.75 27.2962 68.75 28.125C68.75 28.9538 68.4208 29.7487 67.8347 30.3347C67.2487 30.9208 66.4538 31.25 65.625 31.25H34.375C33.5462 31.25 32.7513 30.9208 32.1653 30.3347C31.5792 29.7487 31.25 28.9538 31.25 28.125Z" fill="#FA7268"/>
<path d="M18.75 0H81.25C84.5652 0 87.7446 1.31696 90.0888 3.66117C92.433 6.00537 93.75 9.18479 93.75 12.5V87.5C93.75 90.8152 92.433 93.9946 90.0888 96.3388C87.7446 98.683 84.5652 100 81.25 100H18.75C15.4348 100 12.2554 98.683 9.91117 96.3388C7.56696 93.9946 6.25 90.8152 6.25 87.5V81.25H12.5V87.5C12.5 89.1576 13.1585 90.7473 14.3306 91.9194C15.5027 93.0915 17.0924 93.75 18.75 93.75H81.25C82.9076 93.75 84.4973 93.0915 85.6694 91.9194C86.8415 90.7473 87.5 89.1576 87.5 87.5V12.5C87.5 10.8424 86.8415 9.25268 85.6694 8.08058C84.4973 6.90848 82.9076 6.25 81.25 6.25H18.75C17.0924 6.25 15.5027 6.90848 14.3306 8.08058C13.1585 9.25268 12.5 10.8424 12.5 12.5V18.75H6.25V12.5C6.25 9.18479 7.56696 6.00537 9.91117 3.66117C12.2554 1.31696 15.4348 0 18.75 0V0Z" fill="#FA7268"/>
<path d="M6.25 31.25V28.125C6.25 27.2962 6.57924 26.5013 7.16529 25.9153C7.75134 25.3292 8.5462 25 9.375 25C10.2038 25 10.9987 25.3292 11.5847 25.9153C12.1708 26.5013 12.5 27.2962 12.5 28.125V31.25H15.625C16.4538 31.25 17.2487 31.5792 17.8347 32.1653C18.4208 32.7513 18.75 33.5462 18.75 34.375C18.75 35.2038 18.4208 35.9987 17.8347 36.5847C17.2487 37.1708 16.4538 37.5 15.625 37.5H3.125C2.2962 37.5 1.50134 37.1708 0.915291 36.5847C0.32924 35.9987 0 35.2038 0 34.375C0 33.5462 0.32924 32.7513 0.915291 32.1653C1.50134 31.5792 2.2962 31.25 3.125 31.25H6.25ZM6.25 50V46.875C6.25 46.0462 6.57924 45.2513 7.16529 44.6653C7.75134 44.0792 8.5462 43.75 9.375 43.75C10.2038 43.75 10.9987 44.0792 11.5847 44.6653C12.1708 45.2513 12.5 46.0462 12.5 46.875V50H15.625C16.4538 50 17.2487 50.3292 17.8347 50.9153C18.4208 51.5013 18.75 52.2962 18.75 53.125C18.75 53.9538 18.4208 54.7487 17.8347 55.3347C17.2487 55.9208 16.4538 56.25 15.625 56.25H3.125C2.2962 56.25 1.50134 55.9208 0.915291 55.3347C0.32924 54.7487 0 53.9538 0 53.125C0 52.2962 0.32924 51.5013 0.915291 50.9153C1.50134 50.3292 2.2962 50 3.125 50H6.25ZM6.25 68.75V65.625C6.25 64.7962 6.57924 64.0013 7.16529 63.4153C7.75134 62.8292 8.5462 62.5 9.375 62.5C10.2038 62.5 10.9987 62.8292 11.5847 63.4153C12.1708 64.0013 12.5 64.7962 12.5 65.625V68.75H15.625C16.4538 68.75 17.2487 69.0792 17.8347 69.6653C18.4208 70.2513 18.75 71.0462 18.75 71.875C18.75 72.7038 18.4208 73.4987 17.8347 74.0847C17.2487 74.6708 16.4538 75 15.625 75H3.125C2.2962 75 1.50134 74.6708 0.915291 74.0847C0.32924 73.4987 0 72.7038 0 71.875C0 71.0462 0.32924 70.2513 0.915291 69.6653C1.50134 69.0792 2.2962 68.75 3.125 68.75H6.25Z" fill="#FA7268"/>
</svg>
